<?xml version="1.0" encoding="utf-8"?>
<!-- Generator: Adobe Illustrator 27.9.0, SVG Export Plug-In . SVG Version: 6.00 Build 0)  -->
<svg version="1.1" id="Camada_2_00000072977261304147678720000000662477099289852304_"
	 xmlns="http://www.w3.org/2000/svg" xmlns:xlink="http://www.w3.org/1999/xlink" x="0px" y="0px" viewBox="0 0 140.6 58.3"
	 style="enable-background:new 0 0 140.6 58.3;" xml:space="preserve">
<style type="text/css">
	.st0{fill:#FFFFFF;}
</style>
<path class="st0" d="M16.2,7.2l8.4-3.5c1.3-0.5,2.6-0.8,4-0.8c1.3,0,2.6,0.3,3.8,0.8s2.3,1.2,3.3,2.2c2,1.9,3.1,4.6,3.1,7.4
	c0,1.3-0.3,2.6-0.8,3.9c-0.5,1.2-1.2,2.3-2.2,3.3s-2.1,1.8-3.4,2.3L24.2,26l-1.1-2.7l8.2-3.4c0.9-0.4,1.7-0.9,2.4-1.6
	s1.2-1.5,1.5-2.3c0.4-0.9,0.5-1.8,0.6-2.8c0-2-0.8-3.9-2.2-5.3c-0.7-0.7-1.5-1.2-2.4-1.5c-0.9-0.4-1.8-0.6-2.8-0.6s-2,0.2-2.9,0.6
	l-8.4,3.5l0,0l-1.8,2.8l4,9.6l1.8-2.8l0,0l0.1-0.1L20.9,18l8.2-3.4c0.2-0.1,0.3-0.2,0.4-0.3s0.2-0.3,0.3-0.4c0.2-0.5,0-1.3-0.4-1.7
	c0-0.1-0.2-0.2-0.4-0.2c-0.2-0.1-0.3-0.1-0.5-0.1s-0.4,0-0.5,0.1l-8.2,3.4l-1.2-2.9L26.8,9c0.5-0.2,1.1-0.4,1.8-0.3
	c0.6,0,1.1,0.1,1.7,0.3s1,0.5,1.4,0.9c0.9,0.8,1.3,2,1.3,3.2c0,0.6-0.1,1.1-0.3,1.7c-0.2,0.5-0.5,1-1,1.4c-0.4,0.4-0.9,0.8-1.5,1
	L22,20.7l0,0h-0.1l0,0l-1.6,2.4l-4.1,6.5l0,0L8.1,33c-1.6,0.7-3.1,1.7-4.3,2.9S1.7,38.5,1,40.1c-0.6,1.6-1,3.2-1,4.9
	c0,3.5,1.4,7,3.9,9.5c1.2,1.2,2.6,2.1,4.2,2.8s3.2,1,4.9,1c1.8,0,3.5-0.3,5.1-1l8.2-3.4l5.7-9l-1.8-4.4L25.8,30l-1.9,3L29,45.2
	l-3.8,6l0,0l-8.1,3.4c-1.3,0.5-2.6,0.8-4,0.8c-1.3,0-2.6-0.3-3.9-0.8c-1.2-0.5-2.3-1.2-3.3-2.2c-2-1.9-3.1-4.6-3.1-7.4
	c0-1.3,0.3-2.6,0.8-3.8s1.2-2.3,2.2-3.3s2.1-1.8,3.4-2.3l8.1-3.4l1.1,2.7l0,0l-8.1,3.4c-0.9,0.4-1.7,0.9-2.4,1.6
	c-0.7,0.7-1.2,1.5-1.6,2.3C5.9,43.1,5.7,44,5.7,45c0,2,0.8,3.9,2.2,5.3c0.7,0.7,1.5,1.2,2.3,1.5c0.9,0.4,1.8,0.5,2.8,0.6
	c1,0,2-0.2,2.9-0.6l8.1-3.4l1.9-3L22,36l-1.9,3l0.6,1.6l0,0l0,0L12.6,44c-0.2,0.1-0.3,0.2-0.4,0.3c-0.1,0.1-0.2,0.3-0.3,0.4
	c-0.1,0.2-0.1,0.3-0.1,0.5c0,0.5,0.3,1,0.8,1.2c0.2,0.1,0.3,0.1,0.5,0.1s0.4,0,0.5-0.1l8.2-3.4l1.2,2.9l-8.2,3.4
	c-0.6,0.2-1.1,0.3-1.8,0.3c-0.6,0-1.1-0.1-1.7-0.3c-0.5-0.2-1-0.5-1.4-1c-0.9-0.8-1.4-2-1.3-3.2c0-0.6,0.1-1.2,0.3-1.7
	s0.5-1,0.9-1.4s0.9-0.8,1.5-1l7.6-3.1l0.6-0.2l0,0l5.7-8.8l0,0l8.3-3.4c1.6-0.7,3.1-1.7,4.3-2.9c1.2-1.2,2.1-2.6,2.8-4.2
	s1-3.2,1-4.9c0-3.6-1.4-7-3.9-9.5c-1.2-1.2-2.6-2.1-4.2-2.8c-1.6-0.7-3.2-1-4.9-1c-1.8,0-3.5,0.3-5.1,1l-8.4,3.5l0,0l-5.5,8.8
	l6.2,15l1.9-3l-5.1-12.3L16.2,7.2L16.2,7.2z M20.4,31.9l-1.1-2.6l1.9-3l1.1,2.6L20.4,31.9z"/>
<g>
	<path class="st0" d="M51.8,20.4c-0.7,0-1.1-0.3-1.1-0.9V8.8c0-0.3,0.1-0.5,0.3-0.6c0.2-0.2,0.5-0.3,0.8-0.3h7.3
		c0.7,0,1.1,0.3,1.1,1c0,0.3-0.1,0.6-0.2,0.8c-0.2,0.2-0.4,0.3-0.8,0.3h-5.7v3h5.2c0.7,0,1.1,0.3,1.1,1c0,0.3-0.1,0.6-0.2,0.8
		c-0.2,0.2-0.4,0.3-0.8,0.3h-5.2v3.1h5.8c0.3,0,0.5,0.1,0.7,0.3c0.2,0.2,0.2,0.4,0.2,0.8c0,0.3-0.1,0.6-0.2,0.8
		c-0.2,0.2-0.4,0.3-0.8,0.3H51.8z"/>
	<path class="st0" d="M63.6,19.8c-0.2,0.2-0.3,0.4-0.5,0.5c-0.2,0.1-0.4,0.2-0.7,0.2c-0.5,0-0.9-0.1-1.1-0.3
		c-0.2-0.2-0.4-0.4-0.4-0.7c0-0.3,0.1-0.5,0.2-0.7l3.8-4.7l-3.5-4.7c-0.1-0.1-0.1-0.2-0.2-0.3c0-0.1-0.1-0.2-0.1-0.3
		c0-0.3,0.1-0.5,0.4-0.7c0.3-0.2,0.6-0.3,1-0.3c0.4,0,0.6,0.1,0.8,0.2c0.2,0.1,0.4,0.3,0.5,0.6l2.6,3.7l2.7-3.7
		c0.2-0.2,0.3-0.4,0.5-0.6c0.2-0.2,0.4-0.2,0.8-0.2c0.4,0,0.8,0.1,1,0.3c0.2,0.2,0.4,0.4,0.4,0.7c0,0.1,0,0.2,0,0.3
		c0,0.1-0.1,0.2-0.2,0.3L68.3,14l3.9,4.8c0.1,0.2,0.2,0.4,0.2,0.6c0,0.3-0.1,0.6-0.4,0.8c-0.3,0.2-0.6,0.3-1,0.3
		c-0.3,0-0.6-0.1-0.8-0.2c-0.2-0.1-0.4-0.3-0.5-0.5l-3-3.8L63.6,19.8z"/>
	<path class="st0" d="M76.8,19.5c0,0.3-0.1,0.5-0.3,0.7c-0.2,0.2-0.5,0.3-1,0.3c-0.5,0-0.9-0.1-1.1-0.3c-0.2-0.2-0.3-0.4-0.3-0.8
		V8.8c0-0.3,0.1-0.5,0.3-0.6c0.2-0.1,0.5-0.2,0.8-0.2H79c1.7,0,3,0.3,3.8,1c0.8,0.7,1.2,1.7,1.2,2.9c0,0.4-0.1,0.9-0.2,1.3
		c-0.1,0.5-0.4,0.9-0.7,1.3c-0.4,0.4-0.9,0.7-1.5,1c-0.6,0.3-1.4,0.4-2.4,0.4h-2.4V19.5z M76.8,13.8h2c0.5,0,0.8-0.1,1.1-0.2
		c0.3-0.1,0.6-0.3,0.7-0.4c0.2-0.2,0.3-0.4,0.4-0.6c0.1-0.2,0.1-0.5,0.1-0.8c0-0.3,0-0.5-0.1-0.7c-0.1-0.2-0.2-0.4-0.4-0.6
		s-0.4-0.3-0.7-0.4C79.7,10,79.3,10,78.8,10h-2V13.8z"/>
	<path class="st0" d="M92.2,7.6c1.1,0,2,0.2,2.8,0.5c0.8,0.3,1.5,0.8,2.1,1.4c0.6,0.6,1,1.3,1.3,2.1c0.3,0.8,0.4,1.7,0.4,2.6
		c0,1-0.2,1.9-0.5,2.7c-0.3,0.8-0.8,1.5-1.3,2c-0.6,0.6-1.3,1-2.1,1.3c-0.8,0.3-1.8,0.5-2.8,0.5c-1.1,0-2-0.2-2.9-0.5
		c-0.8-0.3-1.5-0.7-2.1-1.3c-0.6-0.6-1-1.2-1.3-2c-0.3-0.8-0.4-1.7-0.4-2.6s0.2-1.9,0.5-2.7c0.3-0.8,0.8-1.5,1.3-2.1
		c0.6-0.6,1.3-1.1,2.1-1.4C90.2,7.8,91.2,7.6,92.2,7.6z M92.2,18.6c1.3,0,2.2-0.4,2.8-1.2c0.6-0.8,0.9-1.8,0.9-3.2
		c0-0.6-0.1-1.2-0.2-1.8c-0.2-0.5-0.4-1-0.7-1.4c-0.3-0.4-0.7-0.7-1.2-0.9c-0.5-0.2-1-0.3-1.7-0.3c-0.6,0-1.2,0.1-1.7,0.3
		c-0.5,0.2-0.9,0.5-1.2,0.9c-0.3,0.4-0.5,0.9-0.7,1.4c-0.2,0.5-0.2,1.1-0.2,1.8c0,1.3,0.3,2.4,0.9,3.2C90,18.2,90.9,18.6,92.2,18.6z
		"/>
	<path class="st0" d="M53.5,34.7c0,0.3-0.1,0.5-0.3,0.7c-0.2,0.2-0.5,0.3-1,0.3c-0.5,0-0.9-0.1-1.1-0.3c-0.2-0.2-0.3-0.4-0.3-0.8V24
		c0-0.3,0.1-0.5,0.3-0.6c0.2-0.1,0.5-0.2,0.8-0.2h3.9c1.7,0,3,0.3,3.8,1c0.8,0.7,1.2,1.7,1.2,2.9c0,0.4-0.1,0.9-0.2,1.3
		c-0.1,0.5-0.4,0.9-0.7,1.3c-0.4,0.4-0.9,0.7-1.5,1c-0.6,0.3-1.4,0.4-2.4,0.4h-2.4V34.7z M53.5,29h2c0.5,0,0.8-0.1,1.1-0.2
		c0.3-0.1,0.6-0.3,0.7-0.4c0.2-0.2,0.3-0.4,0.4-0.6c0.1-0.2,0.1-0.5,0.1-0.8c0-0.3,0-0.5-0.1-0.7c-0.1-0.2-0.2-0.4-0.4-0.6
		c-0.2-0.2-0.4-0.3-0.7-0.4s-0.7-0.2-1.1-0.2h-2V29z"/>
	<path class="st0" d="M62.7,24c0-0.3,0.1-0.5,0.3-0.7c0.2-0.2,0.4-0.2,0.7-0.2h4.1c1.7,0,3,0.3,3.8,1c0.8,0.6,1.2,1.6,1.2,2.9
		c0,0.3,0,0.6-0.1,0.9c-0.1,0.3-0.2,0.6-0.4,0.9c-0.2,0.3-0.4,0.6-0.6,0.8c-0.3,0.3-0.6,0.5-1,0.7l2.3,3.8c0.1,0.1,0.1,0.2,0.2,0.3
		s0.1,0.2,0.1,0.3c0,0.2,0,0.3-0.1,0.4c-0.1,0.1-0.2,0.2-0.3,0.3c-0.1,0.1-0.3,0.2-0.5,0.2c-0.2,0.1-0.4,0.1-0.7,0.1
		s-0.5-0.1-0.7-0.2c-0.2-0.1-0.3-0.3-0.5-0.5l-2.5-4h-2.6v3.7c0,0.3-0.1,0.5-0.3,0.7c-0.2,0.2-0.5,0.3-1.1,0.3
		c-0.5,0-0.8-0.1-1.1-0.3c-0.2-0.2-0.3-0.4-0.3-0.8V24z M67.5,28.9c0.5,0,0.8-0.1,1.1-0.2c0.3-0.1,0.6-0.3,0.7-0.4
		c0.2-0.2,0.3-0.4,0.4-0.6c0.1-0.2,0.1-0.5,0.1-0.7c0-0.3,0-0.5-0.1-0.7c-0.1-0.2-0.2-0.4-0.4-0.6c-0.2-0.2-0.4-0.3-0.7-0.4
		c-0.3-0.1-0.7-0.1-1.1-0.1h-2.2v3.8H67.5z"/>
	<path class="st0" d="M76.2,35.6c-0.7,0-1.1-0.3-1.1-0.9V24c0-0.3,0.1-0.5,0.3-0.6c0.2-0.2,0.5-0.3,0.8-0.3h7.3c0.7,0,1.1,0.3,1.1,1
		c0,0.3-0.1,0.6-0.2,0.8c-0.2,0.2-0.4,0.3-0.8,0.3h-5.7v3H83c0.7,0,1.1,0.3,1.1,1c0,0.3-0.1,0.6-0.2,0.8c-0.2,0.2-0.4,0.3-0.8,0.3
		h-5.2v3.1h5.8c0.3,0,0.5,0.1,0.7,0.3c0.2,0.2,0.2,0.4,0.2,0.8c0,0.3-0.1,0.6-0.2,0.8c-0.2,0.2-0.4,0.3-0.8,0.3H76.2z"/>
	<path class="st0" d="M89.1,34.7c0,0.3-0.1,0.5-0.3,0.7c-0.2,0.2-0.5,0.3-1.1,0.3c-0.5,0-0.8-0.1-1-0.3c-0.2-0.2-0.3-0.4-0.3-0.8
		V24.2c0-0.4,0.1-0.8,0.4-0.9c0.3-0.2,0.8-0.3,1.4-0.3c0.6,0,1.1,0.1,1.4,0.3c0.3,0.2,0.5,0.5,0.6,0.8l3.4,8.9l3.2-8.8
		c0.2-0.4,0.4-0.7,0.7-0.9c0.3-0.2,0.8-0.3,1.5-0.3c0.6,0,1.1,0.1,1.4,0.3c0.3,0.2,0.4,0.5,0.4,0.9v10.5c0,0.3-0.1,0.5-0.3,0.7
		c-0.2,0.2-0.6,0.3-1.1,0.3c-0.5,0-0.8-0.1-1-0.3c-0.2-0.2-0.3-0.4-0.3-0.8v-7.8l-3.1,7.8c-0.1,0.3-0.3,0.5-0.6,0.7
		c-0.3,0.1-0.6,0.2-0.9,0.2c-0.5,0-0.8-0.1-1.1-0.3c-0.2-0.2-0.4-0.4-0.5-0.7l-2.9-7.5V34.7z"/>
	<path class="st0" d="M103.8,24c0-0.4,0.1-0.6,0.4-0.8c0.3-0.2,0.6-0.2,1-0.2c0.4,0,0.7,0.1,1,0.2c0.3,0.2,0.4,0.4,0.4,0.8v10.6
		c0,0.3-0.1,0.5-0.3,0.7c-0.2,0.2-0.5,0.3-1.1,0.3c-0.5,0-0.9-0.1-1.1-0.3c-0.2-0.2-0.3-0.4-0.3-0.8V24z"/>
	<path class="st0" d="M109.3,24c0-0.4,0.1-0.6,0.4-0.8c0.3-0.2,0.6-0.2,1-0.2c0.4,0,0.7,0.1,1,0.2c0.2,0.2,0.4,0.4,0.4,0.8V31
		c0,1,0.2,1.8,0.7,2.2c0.5,0.4,1.2,0.7,2.1,0.7c0.9,0,1.6-0.2,2.1-0.7c0.5-0.4,0.7-1.2,0.7-2.2V24c0-0.4,0.1-0.6,0.4-0.8
		c0.3-0.2,0.6-0.2,1-0.2c0.4,0,0.7,0.1,1,0.2c0.2,0.2,0.4,0.4,0.4,0.8v7.2c0,0.8-0.1,1.4-0.4,2c-0.3,0.6-0.7,1.1-1.2,1.4
		c-0.5,0.4-1.1,0.7-1.8,0.9c-0.7,0.2-1.5,0.3-2.3,0.3c-1.8,0-3.1-0.4-4.1-1.2c-0.9-0.8-1.4-1.9-1.4-3.4V24z"/>
	<path class="st0" d="M125.8,34.7c0,0.3-0.1,0.5-0.3,0.7c-0.2,0.2-0.5,0.3-1.1,0.3c-0.5,0-0.8-0.1-1-0.3c-0.2-0.2-0.3-0.4-0.3-0.8
		V24.2c0-0.4,0.1-0.8,0.4-0.9c0.3-0.2,0.8-0.3,1.4-0.3c0.6,0,1.1,0.1,1.4,0.3c0.3,0.2,0.5,0.5,0.6,0.8l3.4,8.9l3.2-8.8
		c0.2-0.4,0.4-0.7,0.7-0.9c0.3-0.2,0.8-0.3,1.5-0.3c0.6,0,1.1,0.1,1.4,0.3c0.3,0.2,0.4,0.5,0.4,0.9v10.5c0,0.3-0.1,0.5-0.3,0.7
		c-0.2,0.2-0.6,0.3-1.1,0.3c-0.5,0-0.8-0.1-1-0.3c-0.2-0.2-0.3-0.4-0.3-0.8v-7.8l-3.1,7.8c-0.1,0.3-0.3,0.5-0.6,0.7
		c-0.3,0.1-0.6,0.2-0.9,0.2c-0.5,0-0.8-0.1-1.1-0.3c-0.2-0.2-0.4-0.4-0.5-0.7l-2.9-7.5V34.7z"/>
	<path class="st0" d="M50.7,39.2c0-0.4,0.1-0.6,0.4-0.8c0.3-0.2,0.6-0.2,1-0.2c0.4,0,0.7,0.1,1,0.2c0.3,0.2,0.4,0.4,0.4,0.8v10.6
		c0,0.3-0.1,0.5-0.3,0.7c-0.2,0.2-0.5,0.3-1.1,0.3c-0.5,0-0.9-0.1-1.1-0.3c-0.2-0.2-0.3-0.4-0.3-0.8V39.2z"/>
	<path class="st0" d="M56.4,39.4c0-0.4,0.1-0.7,0.4-0.9c0.3-0.2,0.6-0.3,1-0.3c0.3,0,0.6,0.1,0.8,0.2c0.2,0.1,0.5,0.3,0.7,0.7
		l5.6,7.9v-7.6c0-0.4,0.1-0.7,0.4-0.8s0.6-0.2,1-0.2c0.4,0,0.7,0.1,1,0.2c0.2,0.2,0.4,0.4,0.4,0.8v10.5c0,0.1,0,0.3,0,0.4
		c0,0.1-0.1,0.3-0.2,0.4c-0.1,0.1-0.2,0.2-0.4,0.3c-0.2,0.1-0.4,0.1-0.7,0.1c-0.6,0-1.1-0.3-1.5-0.8l-5.7-7.6v7.3
		c0,0.3-0.1,0.5-0.3,0.7c-0.2,0.2-0.5,0.3-1.1,0.3c-0.5,0-0.9-0.1-1.1-0.3c-0.2-0.2-0.3-0.4-0.3-0.8V39.4z"/>
	<path class="st0" d="M76.3,49.9c0,0.3-0.1,0.5-0.3,0.7c-0.2,0.2-0.6,0.3-1.1,0.3c-0.9,0-1.4-0.3-1.4-1v-9.5h-3.3
		c-0.4,0-0.7-0.1-0.8-0.3c-0.2-0.2-0.2-0.4-0.2-0.7c0-0.3,0.1-0.5,0.3-0.7c0.2-0.2,0.4-0.3,0.8-0.3h9.7c0.3,0,0.6,0.1,0.8,0.3
		c0.2,0.2,0.3,0.4,0.3,0.7c0,0.3-0.1,0.5-0.2,0.7c-0.2,0.2-0.4,0.3-0.8,0.3h-3.5V49.9z"/>
	<path class="st0" d="M83.5,50.7c-0.7,0-1.1-0.3-1.1-0.9V39.2c0-0.3,0.1-0.5,0.3-0.6c0.2-0.2,0.5-0.3,0.8-0.3h7.3
		c0.7,0,1.1,0.3,1.1,1c0,0.3-0.1,0.6-0.2,0.8c-0.2,0.2-0.4,0.3-0.8,0.3h-5.7v3h5.2c0.7,0,1.1,0.3,1.1,1c0,0.3-0.1,0.6-0.2,0.8
		c-0.2,0.2-0.4,0.3-0.8,0.3h-5.2v3.1H91c0.3,0,0.5,0.1,0.7,0.3c0.2,0.2,0.2,0.4,0.2,0.8c0,0.3-0.1,0.6-0.2,0.8
		c-0.2,0.2-0.4,0.3-0.8,0.3H83.5z"/>
	<path class="st0" d="M93.8,39.2c0-0.3,0.1-0.5,0.3-0.7c0.2-0.2,0.4-0.2,0.7-0.2h4.1c1.7,0,3,0.3,3.8,1c0.8,0.6,1.2,1.6,1.2,2.9
		c0,0.3,0,0.6-0.1,0.9c-0.1,0.3-0.2,0.6-0.4,0.9c-0.2,0.3-0.4,0.6-0.6,0.8c-0.3,0.3-0.6,0.5-1,0.7l2.3,3.8c0.1,0.1,0.1,0.2,0.2,0.3
		c0,0.1,0.1,0.2,0.1,0.3c0,0.2,0,0.3-0.1,0.4c-0.1,0.1-0.2,0.2-0.3,0.3c-0.1,0.1-0.3,0.2-0.5,0.2c-0.2,0.1-0.4,0.1-0.7,0.1
		s-0.5-0.1-0.7-0.2c-0.2-0.1-0.3-0.3-0.5-0.5l-2.5-4h-2.6v3.7c0,0.3-0.1,0.5-0.3,0.7s-0.5,0.3-1.1,0.3c-0.5,0-0.8-0.1-1.1-0.3
		c-0.2-0.2-0.3-0.4-0.3-0.8V39.2z M98.6,44.1c0.5,0,0.8-0.1,1.1-0.2c0.3-0.1,0.6-0.3,0.7-0.4c0.2-0.2,0.3-0.4,0.4-0.6
		c0.1-0.2,0.1-0.5,0.1-0.7c0-0.3,0-0.5-0.1-0.7c-0.1-0.2-0.2-0.4-0.4-0.6c-0.2-0.2-0.4-0.3-0.7-0.4c-0.3-0.1-0.7-0.1-1.1-0.1h-2.2
		v3.8H98.6z"/>
</g>
</svg>
