<?xml version="1.0" encoding="utf-8"?>
<!-- Generator: Adobe Illustrator 27.9.0, SVG Export Plug-In . SVG Version: 6.00 Build 0)  -->
<svg version="1.1" id="Camada_1" xmlns="http://www.w3.org/2000/svg" xmlns:xlink="http://www.w3.org/1999/xlink" x="0px" y="0px"
	 viewBox="0 0 128 79.5" style="enable-background:new 0 0 128 79.5;" xml:space="preserve">
<style type="text/css">
	.st0{fill:#FFFFFF;}
	.st1{fill:none;stroke:#FFFFFF;stroke-width:0.5;stroke-miterlimit:10;}
</style>
<g>
	<path class="st0" d="M87.1,55.5"/>
</g>
<image style="overflow:visible;" width="822" height="23" id="Shape_2_copy_2_xA0_Imagem_00000168807819419499299840000013357088031400621472_" xlink:href="25C92EAAFCCDFF86.png"  transform="matrix(0.1281 0 0 0.1281 11.6391 50.6125)">
</image>
<g>
	<path class="st0" d="M12.2,27.9h10c1.2,0,2.3,0.1,3.1,0.4c0.9,0.3,1.6,0.7,2.2,1.3c0.4,0.4,0.7,0.8,0.9,1.3
		c0.2,0.5,0.3,1.1,0.3,1.7v0.1c0,1.1-0.3,2-0.8,2.6c-0.6,0.7-1.3,1.2-2.2,1.5c1.2,0.4,2.1,0.9,2.8,1.6c0.7,0.7,1.1,1.7,1.1,3v0.1
		c0,1.6-0.6,2.9-1.9,3.8c-1.3,0.9-3.1,1.4-5.5,1.4H12.2V27.9z M20.9,35.4c0.8,0,1.5-0.1,1.9-0.4c0.4-0.3,0.7-0.7,0.7-1.2v-0.1
		c0-0.5-0.2-0.9-0.6-1.2c-0.4-0.3-1-0.4-1.8-0.4h-3.5v3.3H20.9z M21.7,42.5c0.8,0,1.5-0.1,1.9-0.4c0.4-0.3,0.7-0.7,0.7-1.3v-0.1
		c0-0.5-0.2-0.9-0.6-1.2c-0.4-0.3-1.1-0.5-2-0.5h-4.1v3.5H21.7z"/>
	<path class="st0" d="M32.2,27.9h9.2c1.5,0,2.8,0.2,3.8,0.5c1,0.4,1.9,0.9,2.5,1.5c1.2,1.1,1.7,2.5,1.7,4.4v0.1
		c0,1.4-0.4,2.6-1.1,3.6c-0.7,0.9-1.7,1.7-2.9,2.2l4.7,6.5h-6.3L40,41h-0.1h-2.3v5.7h-5.4V27.9z M41.2,36.9c0.9,0,1.6-0.2,2.1-0.6
		c0.5-0.4,0.8-0.9,0.8-1.6v-0.1c0-0.7-0.3-1.3-0.8-1.7c-0.5-0.4-1.2-0.5-2.1-0.5h-3.5v4.5H41.2z"/>
	<path class="st0" d="M59,27.8h5.2l8.3,18.9h-5.8l-1.4-3.3h-7.5l-1.4,3.3h-5.7L59,27.8z M63.7,39.3L61.6,34l-2.2,5.3H63.7z"/>
	<path class="st0" d="M82.1,47c-1.7,0-3.4-0.3-5-0.8c-1.6-0.5-3-1.3-4.2-2.3l3-3.5c2,1.5,4.1,2.2,6.3,2.2c0.7,0,1.3-0.1,1.7-0.3
		c0.4-0.2,0.6-0.5,0.6-0.9v-0.1c0-0.2,0-0.4-0.1-0.5c-0.1-0.2-0.3-0.3-0.5-0.4c-0.3-0.1-0.6-0.3-1-0.4c-0.4-0.1-1-0.3-1.6-0.4
		c-1-0.2-2-0.5-2.9-0.8c-0.9-0.3-1.7-0.6-2.3-1.1c-0.7-0.4-1.2-1-1.6-1.6c-0.4-0.6-0.6-1.5-0.6-2.4v-0.1c0-0.9,0.2-1.7,0.5-2.4
		c0.3-0.7,0.8-1.4,1.5-1.9c0.7-0.5,1.5-0.9,2.4-1.2c0.9-0.3,2-0.4,3.2-0.4c1.7,0,3.2,0.2,4.5,0.6c1.3,0.4,2.5,1,3.6,1.9l-2.7,3.7
		c-0.9-0.6-1.8-1.1-2.7-1.4c-0.9-0.3-1.8-0.5-2.7-0.5c-0.7,0-1.1,0.1-1.5,0.3c-0.3,0.2-0.5,0.5-0.5,0.9v0.1c0,0.2,0.1,0.4,0.2,0.6
		c0.1,0.2,0.3,0.3,0.5,0.4c0.3,0.1,0.6,0.3,1,0.4c0.4,0.1,1,0.3,1.7,0.4c1.1,0.2,2.1,0.5,3,0.8c0.9,0.3,1.7,0.7,2.3,1.1
		c0.6,0.4,1.1,1,1.5,1.6c0.3,0.6,0.5,1.4,0.5,2.3v0.1c0,1-0.2,1.8-0.6,2.6c-0.4,0.7-0.9,1.4-1.6,1.9c-0.7,0.5-1.5,0.9-2.5,1.2
		C84.4,46.8,83.3,47,82.1,47z"/>
	<path class="st0" d="M92.7,27.9h5.4v18.7h-5.4V27.9z"/>
	<path class="st0" d="M101.7,27.9h5.4v14.2h9.5v4.5h-14.9V27.9z"/>
</g>
<g>
	<path class="st1" d="M20.8,15.3h5.4v0.2h-5.1v3.7h4.7v0.2h-4.7v3.7h5.2v0.2h-5.4V15.3z"/>
	<path class="st1" d="M28.1,15.3h0.2l3.4,5l3.4-5h0.2v8.1H35v-7.6l-3.3,5h0l-3.3-5v7.6h-0.2V15.3z"/>
	<path class="st1" d="M37.6,15.3h3.2c0.9,0,1.6,0.2,2,0.7c0.3,0.3,0.5,0.8,0.5,1.3v0c0,1-0.6,1.7-1.5,1.9c1.1,0.2,1.9,0.9,1.9,2v0
		c0,1.3-1,2.1-2.8,2.1h-3.3V15.3z M43,17.3c0-1.1-0.8-1.8-2.3-1.8h-2.9v3.6h3.1C42,19.1,43,18.6,43,17.3L43,17.3z M41.1,19.4h-3.3
		v3.7h3.1c1.6,0,2.5-0.7,2.5-1.8v0C43.4,20,42.3,19.4,41.1,19.4z"/>
	<path class="st1" d="M48.5,15.2h0.2l3.7,8.1h-0.3l-1.1-2.4h-4.9l-1.1,2.4h-0.3L48.5,15.2z M51,20.7l-2.3-5.1l-2.3,5.1H51z"/>
	<path class="st1" d="M54.1,15.3h0.2v8.1h-0.2V15.3z"/>
	<path class="st1" d="M62.4,15.3l-3,4l3.1,4.1h-0.3l-3-3.9l-3,3.9h-0.3l3.1-4.1l-3-4h0.3l2.9,3.8l2.9-3.8H62.4z"/>
	<path class="st1" d="M67,15.2h0.2l3.7,8.1h-0.3l-1.1-2.4h-4.9l-1.1,2.4h-0.3L67,15.2z M69.5,20.7l-2.3-5.1l-2.3,5.1H69.5z"/>
	<path class="st1" d="M72.5,15.3H75c2.4,0,4.1,1.8,4.1,4v0c0,2.3-1.7,4-4.1,4h-2.5V15.3z M72.7,15.5v7.6H75c2.3,0,3.8-1.7,3.8-3.8v0
		c0-2.1-1.6-3.8-3.9-3.8H72.7z"/>
	<path class="st1" d="M83.5,15.2h0.2l3.7,8.1h-0.3L86,20.9h-4.9L80,23.3h-0.3L83.5,15.2z M85.9,20.7l-2.3-5.1l-2.3,5.1H85.9z"/>
	<path class="st1" d="M92,15.3h2.5c2.4,0,4.1,1.8,4.1,4v0c0,2.3-1.7,4-4.1,4H92V15.3z M92.3,15.5v7.6h2.2c2.3,0,3.8-1.7,3.8-3.8v0
		c0-2.1-1.6-3.8-3.9-3.8H92.3z"/>
	<path class="st1" d="M100.2,19.3L100.2,19.3c0-2.2,1.5-4.2,3.8-4.2c2.3,0,3.8,2,3.8,4.2v0c0,2.2-1.5,4.2-3.8,4.2
		C101.7,23.5,100.2,21.5,100.2,19.3z M107.6,19.3L107.6,19.3c0-2.1-1.5-4-3.6-4c-2.2,0-3.6,1.8-3.6,3.9v0c0,2.1,1.5,3.9,3.6,3.9
		C106.2,23.2,107.6,21.4,107.6,19.3z"/>
</g>
<g>
	<path class="st0" d="M21.3,64.4c-0.1,1-0.2,2-0.6,2.5l-0.5-0.3c0.4-0.5,0.5-1.4,0.6-2.4L21.3,64.4z M24.4,62.8l0.5,0.1
		c0,0.1,0,0.2,0,0.3c-0.1,2.7-0.2,3.6-0.5,3.9c-0.2,0.3-0.4,0.3-1.1,0.3c-0.2,0-0.3,0-0.5,0c0-0.2-0.1-0.6-0.2-0.8
		c0.3,0,0.6,0,0.8,0c0.1,0,0.2,0,0.3-0.1c0.1-0.1,0.2-0.5,0.3-1.2l-0.3,0.1c-0.1-0.4-0.3-1-0.6-1.4l0.4-0.1c0.2,0.3,0.4,0.7,0.5,1.1
		h0c0-0.4,0.1-0.8,0.1-1.4h-2.4v0.3h-0.8V58h4v0.8h-1.4v0.8h1.2v0.8h-1.2v0.8h1.2V62h-1.2v0.8h0.9L24.4,62.8z M21.6,66.3
		c0-0.5,0-1.3-0.1-2l0.5-0.1c0.1,0.6,0.2,1.4,0.1,1.9L21.6,66.3z M22.5,58.8h-0.9v0.8h0.9V58.8z M22.5,61.2v-0.8h-0.9v0.8H22.5z
		 M21.6,62v0.8h0.9V62H21.6z M22.7,64.2c0.2,0.5,0.4,1.2,0.4,1.7L22.6,66c0-0.5-0.2-1.2-0.4-1.7L22.7,64.2z M28,66.1h2.2V67h-5.4
		v-0.9H27v-2.6h-1.7v-0.9H27v-2.2h-2v-0.9h2.8c-0.5-0.4-1.4-1-2-1.3l0.6-0.7c0.8,0.4,1.8,1,2.3,1.4l-0.5,0.6H30v0.9h-2v2.2h1.8v0.9
		H28V66.1z"/>
	<path class="st0" d="M31.6,58.2h7v9h-1.1v-0.7h-4.9v0.7h-1V58.2z M37.5,59.2h-4.9v2.6h4.9V59.2z M32.6,65.6h4.9v-2.7h-4.9V65.6z"/>
	<path class="st0" d="M46.5,57.6c0.5,0.4,1,1,1.3,1.4l-0.2,0.2l0.5,0.2c0,0.1-0.1,0.1-0.2,0.1c-0.9,3.9-2.8,6.2-6.2,7.5
		c-0.2-0.3-0.5-0.7-0.7-0.9c3.3-1.1,5.1-3.3,5.6-6.1h-6.4v-1h6.8l0.1-0.1c-0.3-0.4-0.7-0.8-1-1.1L46.5,57.6z M48.8,59.1
		c-0.3-0.4-0.8-1.1-1.2-1.5l0.5-0.4c0.5,0.4,1,1,1.3,1.5L48.8,59.1z"/>
	<path class="st0" d="M57.5,61.3c0,0.1-0.1,0.1-0.2,0.1c-0.9,3.2-2.6,4.7-5.7,5.6c-0.1-0.3-0.4-0.6-0.6-0.8c2.7-0.7,4.5-2.1,5.1-4.3
		h-6.6v-1h7.1l0.1-0.1L57.5,61.3z M56.4,59.3h-6v-1h6V59.3z"/>
	<path class="st0" d="M58.5,60.9c0.9,0.2,2.1,0.6,2.8,1l-0.5,0.9c-0.7-0.3-1.8-0.8-2.8-1L58.5,60.9z M59,65.9c3.3-1.1,5.7-2.8,7.1-6
		c0.2,0.2,0.7,0.5,0.9,0.7c-1.4,3-3.9,5-7,6.1c0,0.1,0,0.2-0.1,0.3L59,65.9z M59.8,58.3c0.9,0.3,2,0.7,2.8,1L62,60.2
		c-0.7-0.4-1.8-0.8-2.7-1.1L59.8,58.3z M64.6,57.9c0.4,0.4,1,1,1.3,1.5l-0.5,0.4c-0.3-0.4-0.9-1.1-1.3-1.5L64.6,57.9z M66.1,57.3
		c0.4,0.4,1,1,1.3,1.5l-0.5,0.4c-0.3-0.4-0.9-1.1-1.2-1.5L66.1,57.3z"/>
	<path class="st0" d="M70.5,59.5c0,0.1-0.1,0.2-0.3,0.2c-0.1,2.9-0.3,5.4-1.8,7.3c-0.2-0.2-0.6-0.4-0.9-0.5c1.5-1.7,1.7-4.3,1.7-7.1
		L70.5,59.5z M73.2,65.3c1.6-0.8,2.6-2.3,3.1-4c0.2,0.2,0.7,0.4,0.9,0.6c-0.8,2.1-2,3.7-4.2,4.8c0,0.1-0.1,0.2-0.2,0.2L72,65.9
		l0.1-0.2v-7.6l1.3,0.1c0,0.1-0.1,0.2-0.3,0.2V65.3z"/>
	<path class="st0" d="M87.2,61.6h-3.9c0.7,2.3,1.9,4.1,4.1,4.9c-0.2,0.2-0.6,0.7-0.7,1c-2.1-0.9-3.4-2.5-4.1-4.7
		c-0.5,1.9-1.7,3.7-4.2,4.7c-0.1-0.3-0.5-0.6-0.7-0.9c2.7-1.1,3.7-3,4.1-5h-3.9v-1h4c0.1-1,0.1-2,0.1-3l1.3,0.1
		c0,0.1-0.1,0.2-0.3,0.2c0,0.8,0,1.7-0.1,2.7h4.3V61.6z"/>
	<path class="st0" d="M89.1,61.7c-0.3,0.5-0.7,1-1.1,1.4c-0.1-0.2-0.3-0.7-0.5-1c1-1,1.9-2.8,2.5-4.5l1.1,0.4c0,0.1-0.1,0.1-0.3,0.1
		c-0.3,0.7-0.6,1.4-0.9,2.1l0.3,0.1c0,0.1-0.1,0.1-0.2,0.2v7h-1V61.7z M97.3,63.5h-2.7c-0.1,0.7-0.2,1.3-0.6,1.9
		c1,0.6,2.2,0.9,3.7,1.1c-0.2,0.2-0.5,0.7-0.6,0.9c-1.5-0.2-2.7-0.6-3.7-1.3c-0.5,0.5-1.3,1-2.3,1.3c-0.1-0.2-0.4-0.6-0.6-0.8
		c1-0.3,1.7-0.6,2.2-1.1c-0.5-0.4-0.9-1-1.2-1.6l0.9-0.3c0.2,0.4,0.5,0.8,0.9,1.1c0.2-0.4,0.3-0.8,0.4-1.3h-2.5v-3h2.5v-0.9h-2.8
		v-0.9h2.8v-1l1.2,0.1c0,0.1-0.1,0.1-0.3,0.2v0.8h3v0.9h-3v0.9h2.7V63.5z M92,62.7h1.6v-1.4H92V62.7z M96.3,61.3h-1.7v1.4h1.7V61.3z
		"/>
	<path class="st0" d="M106.9,63.2h-3V64h3.4v3.4h-0.9V67H104v0.5h-0.9v-6.9h-0.6v-0.9l-0.5,0.5c-0.3-0.4-0.9-1-1.4-1.5
		c-0.4,0.6-0.8,1.2-1.4,1.8h1v-1l1,0.1c0,0.1-0.1,0.1-0.2,0.2v0.7h1.2V64h-2.5v1.7l1.3-0.3c-0.2-0.3-0.4-0.6-0.6-0.8l0.7-0.4
		c0.6,0.7,1.3,1.7,1.5,2.4l-0.8,0.4c-0.1-0.3-0.2-0.6-0.4-0.9c-1.1,0.3-2.2,0.6-2.9,0.7c0,0.1-0.1,0.1-0.1,0.2L98,66
		c0.2,0,0.5-0.1,0.8-0.2v-5.1L98.6,61c-0.1-0.2-0.5-0.5-0.7-0.6c1-0.8,1.6-1.9,2-2.8l1.1,0.2c0,0.1-0.1,0.1-0.2,0.1
		c0.5,0.4,1.2,1,1.5,1.4v-0.5h2.1v-1.2l1.2,0.1c0,0.1-0.1,0.1-0.2,0.2v1h2.2v1.8h-0.7V63.2z M101.2,61.2h-1.6v0.7h1.6V61.2z
		 M99.7,63.3h1.6v-0.7h-1.6V63.3z M106.8,59.6h-3.5v0.9h3.5V59.6z M106,62.4v-1.2h-2v1.2H106z M106.4,64.8H104v1.3h2.5V64.8z"/>
</g>
</svg>
