<?xml version="1.0" encoding="utf-8"?>
<!-- Generator: Adobe Illustrator 27.9.0, SVG Export Plug-In . SVG Version: 6.00 Build 0)  -->
<svg version="1.1" id="Camada_1" xmlns="http://www.w3.org/2000/svg" xmlns:xlink="http://www.w3.org/1999/xlink" x="0px" y="0px"
	 viewBox="0 0 1500 502.5" style="enable-background:new 0 0 1500 502.5;" xml:space="preserve">
<style type="text/css">
	.st0{fill:#FFFFFF;}
</style>
<g>
	<path class="st0" d="M1386.6,340.7l42.3-0.9c16.8,0,29.8,2.5,39,7.5c9.1,5,13.7,15.2,13.7,30.5v73.8h-40.7v-17.8
		c-3.1,8.7-8.8,14.3-17,16.6c-8.2,2.3-18.7,3.5-31.7,3.5h-7.5c-17.5,0-30.3-2.2-38.5-6.6c-8.2-4.4-12.3-14.5-12.3-30.5
		c0-11.5,3.2-20.3,9.5-26.1c6.3-5.9,15.2-8.8,26.8-8.8c6.1-0.5,12.2-0.7,18.5-0.7h6.3h11.9c8.3,0,15.1,0.7,20.5,2.1
		c5.4,1.4,9.9,4.6,13.4,9.6V381c0-6.6-1.4-11-4.2-13.2c-2.8-2.3-7.6-3.4-14.3-3.4l-18.7-0.5l-13.3,0.5c-3.9,0-6.8,0.5-8.6,1.6
		c-1.9,1.1-2.8,3.4-2.8,7h-40.2c0-12.5,4.5-21,13.4-25.6C1361,343,1372.5,340.7,1386.6,340.7 M1401.8,428.1h3.5
		c8.9,0,16.2-0.4,21.9-1.3c5.7-0.9,9.4-2.2,11.1-3.9c1.7-1.7,2.6-4.4,2.6-8c0-4.4-1.8-7.3-5.3-8.8c-3.5-1.5-7.8-2.2-12.7-2.2
		l-23.1-0.5c-7.2,0-13.2,0.7-18.2,2c-5,1.3-7.5,4.7-7.5,10c0,5.2,2,8.5,5.8,10.2c3.9,1.6,9,2.5,15.2,2.5H1401.8z"/>
	<polygon class="st0" points="1224.4,451.6 1170.4,342.1 1216,342.1 1251.1,420.7 1286,342.1 1331.4,342.1 1277.5,451.6 	"/>
	<rect x="1124.1" y="342.2" class="st0" width="40.5" height="109.4"/>
	<rect x="1124.1" y="315.3" class="st0" width="40.5" height="18.7"/>
	<path class="st0" d="M1044.8,369.1V404c0,7.2,1.1,12.3,3.4,15.2c2.2,3,6.8,4.5,13.7,4.5c6.1,0,10.5-1,13.2-3
		c2.7-2,4.1-5.9,4.1-11.7V404h31.6c0,19.4-3.1,32.5-9.2,39.5c-6.2,6.9-19.2,10.4-39.2,10.4c-24.5,0-40.5-3.1-47.9-9.3
		c-7.5-6.2-11.2-15.7-11.2-28.7v-46.9h-20.8v-27h20.8v-26.7h41.6v26.7h66v27H1044.8z"/>
	<path class="st0" d="M879.4,340.7l42.3-0.9c16.8,0,29.8,2.5,38.9,7.5c9.1,5,13.7,15.2,13.7,30.5v73.8h-40.7v-17.8
		c-3.1,8.7-8.8,14.3-17,16.6c-8.2,2.3-18.7,3.5-31.7,3.5h-7.5c-17.5,0-30.3-2.2-38.5-6.6c-8.2-4.4-12.3-14.5-12.3-30.5
		c0-11.5,3.2-20.3,9.5-26.1c6.3-5.9,15.2-8.8,26.8-8.8c6.1-0.5,12.2-0.7,18.5-0.7h6.3h11.9c8.3,0,15.1,0.7,20.5,2.1
		c5.4,1.4,9.9,4.6,13.4,9.6V381c0-6.6-1.4-11-4.2-13.2c-2.8-2.3-7.6-3.4-14.3-3.4l-18.7-0.5l-13.3,0.5c-3.9,0-6.8,0.5-8.7,1.6
		c-1.9,1.1-2.8,3.4-2.8,7h-40.2c0-12.5,4.5-21,13.4-25.6C853.8,343,865.3,340.7,879.4,340.7 M894.6,428.1h3.5
		c8.9,0,16.2-0.4,21.9-1.3c5.7-0.9,9.4-2.2,11.1-3.9c1.7-1.7,2.6-4.4,2.6-8c0-4.4-1.7-7.3-5.3-8.8c-3.5-1.5-7.8-2.2-12.7-2.2
		l-23.2-0.5c-7.2,0-13.2,0.7-18.2,2c-5,1.3-7.5,4.7-7.5,10c0,5.2,2,8.5,5.9,10.2c3.9,1.6,9,2.5,15.2,2.5H894.6z"/>
	<path class="st0" d="M706,364.6c3.4-10,9-16.6,16.8-19.9c7.8-3.3,17.9-4.9,30.2-4.9c22.1,0,37.8,3.6,47.1,10.9
		c9.3,7.3,13.9,21.7,13.9,43.5v57.4h-40.7v-57.4c0-9.7-2-15.9-6-18.8c-4-2.8-11.3-4.2-22.1-4.2h-4.7c-12,0-20.8,1.8-26.3,5.3
		c-5.5,3.5-8.3,11.4-8.3,23.5v2.6v49h-40.5V342.1H706V364.6z"/>
	<path class="st0" d="M570.3,363.9c3-9.4,8.1-15.7,15.3-19.1c7.3-3.4,16.4-5,27.5-5c16.9,0,28.5,3,34.8,8.9
		c6.4,5.9,9.6,17.2,9.6,33.7v7h-37.7c-0.1-0.5-0.2-1.3-0.2-2.6c-0.6-7.3-2.5-12-5.7-13.9c-3.2-2-9.1-2.9-17.7-2.9
		c-9.8,0-16.6,2.6-20.3,7.8c-3.8,5.2-5.6,13.2-5.6,23.8v49.9h-40.5V342.1h40.5V363.9z"/>
	<path class="st0" d="M456.6,453.9c-21.9-0.8-63.1,4.2-77.3-15.7c-6.8-9.5-10.2-24.3-10.2-44.5c0-18.4,3.6-31.9,10.8-40.4
		c7.2-8.5,19.6-12.8,37.4-12.8l38.4-0.7c11.5,0,21.1,0.6,28.8,1.9c7.6,1.3,14.2,4.1,19.6,8.7c5.4,4.5,9.1,10.2,10.9,16.9
		c1.8,6.7,2.7,14.4,2.7,23c0,1.9,0,4-0.1,6.3c-0.1,2.4-0.1,5-0.1,8H410.3c0,8.6,1.6,14.6,4.7,18.2c3.2,3.5,8.9,5.3,17.4,5.3l23,0.5
		c5.2,0,9.5-0.3,12.9-0.9c3.4-0.6,5.8-1.7,6.9-3.3c1.2-1.6,1.9-4.4,2.2-8.4h40c0,16.4-5.3,26.9-15.8,31.4
		C491.1,451.7,476.1,453.9,456.6,453.9 M437.5,364.2c-8.6,0-15.3,0.9-20.1,2.7c-4.8,1.8-7.3,6.3-7.3,13.5l0.2,3h67.1
		c0-8-2-13.2-5.8-15.6c-3.9-2.4-10.2-3.6-18.9-3.6H437.5z"/>
	<path class="st0" d="M292.9,369.1V404c0,7.2,1.1,12.3,3.4,15.2c2.3,3,6.8,4.5,13.7,4.5c6.1,0,10.5-1,13.2-3c2.7-2,4.1-5.9,4.1-11.7
		V404h31.6c0,19.4-3.1,32.5-9.2,39.5c-6.2,6.9-19.2,10.4-39.2,10.4c-24.5,0-40.5-3.1-47.9-9.3c-7.5-6.2-11.2-15.7-11.2-28.7v-46.9
		h-20.8v-27h20.8v-26.7h41.6v26.7h66v27H292.9z"/>
	<rect x="181.8" y="315.4" class="st0" width="40.5" height="136.1"/>
	<path class="st0" d="M71.1,340.7l42.3-0.9c16.8,0,29.8,2.5,38.9,7.5c9.1,5,13.7,15.2,13.7,30.5v73.8h-40.7v-17.8
		c-3.1,8.7-8.8,14.3-17,16.6c-8.2,2.3-18.7,3.5-31.7,3.5h-7.5c-17.5,0-30.3-2.2-38.5-6.6c-8.2-4.4-12.3-14.5-12.3-30.5
		c0-11.5,3.2-20.3,9.5-26.1c6.3-5.9,15.2-8.8,26.8-8.8c6.1-0.5,12.2-0.7,18.5-0.7h6.3h11.9c8.3,0,15.1,0.7,20.5,2.1
		c5.4,1.4,9.9,4.6,13.5,9.6V381c0-6.6-1.4-11-4.2-13.2c-2.8-2.3-7.6-3.4-14.3-3.4l-18.7-0.5l-13.3,0.5c-3.9,0-6.8,0.5-8.7,1.6
		c-1.9,1.1-2.8,3.4-2.8,7H23.1c0-12.5,4.5-21,13.5-25.6C45.6,343,57.1,340.7,71.1,340.7 M86.3,428.1h3.5c8.9,0,16.2-0.4,21.9-1.3
		c5.7-0.9,9.4-2.2,11.1-3.9c1.7-1.7,2.6-4.4,2.6-8c0-4.4-1.8-7.3-5.3-8.8c-3.5-1.5-7.8-2.2-12.7-2.2l-23.2-0.5
		c-7.2,0-13.3,0.7-18.2,2c-5,1.3-7.5,4.7-7.5,10c0,5.2,2,8.5,5.8,10.2c3.9,1.6,9,2.5,15.2,2.5H86.3z"/>
</g>
</svg>
