<?xml version="1.0" encoding="utf-8"?>
<!-- Generator: Adobe Illustrator 27.8.0, SVG Export Plug-In . SVG Version: 6.00 Build 0)  -->
<svg version="1.1" id="Camada_1" xmlns="http://www.w3.org/2000/svg" xmlns:xlink="http://www.w3.org/1999/xlink" x="0px" y="0px"
	 viewBox="0 0 250 100" style="enable-background:new 0 0 250 100;" xml:space="preserve">
<style type="text/css">
	.st0{fill:#C1272D;}
	.st1{fill:#808080;}
</style>
<g>
	<g>
		<g>
			<g>
				<g>
					<path class="st0" d="M53.63,46.51c0,7.26-4.67,12.81-14.06,12.81c-9.39,0-14-5.24-14-12.81V22.5h8.51v23.65
						c0,4.62,1.66,6.85,5.5,6.85c3.89,0,5.55-2.23,5.55-6.85V22.5h8.51V46.51z"/>
				</g>
				<g>
					<path class="st0" d="M25.58,62.41h27.91v6.05H25.58V62.41z"/>
				</g>
			</g>
			<g>
				<g>
					<path class="st0" d="M65.79,68.55h-9.13V31.65h9.13V68.55z"/>
				</g>
				<g>
					<path class="st0" d="M56.66,22.61h9.14v6.05h-9.14V22.61z"/>
				</g>
			</g>
		</g>
		<path class="st1" d="M182.04,70.94"/>
		<path class="st1" d="M172.58,70.94"/>
		<g>
			<g>
				<path class="st1" d="M174.53,45.57c0,14.35-7.75,23.01-20.74,23.01c-12.92,0-20.67-8.41-20.67-23.01
					c0-14.29,7.75-22.95,20.67-22.95C166.77,22.62,174.53,30.96,174.53,45.57z M144.51,45.57c0,11.13,3.31,15.43,9.28,15.43
					c6.23,0,9.34-4.3,9.34-15.43c0-11.06-3.18-15.36-9.34-15.36C147.69,30.2,144.51,34.5,144.51,45.57z"/>
			</g>
			<polygon class="st1" points="213.01,22.76 213.01,22.65 209.42,22.65 209.43,22.63 199.37,22.63 199.36,22.68 199.35,22.68 
				191.25,55.16 182.96,22.65 173.17,22.71 184.34,67.54 193.51,67.54 197.97,67.57 197.98,67.52 197.99,67.52 206.26,35.05 
				214.37,67.58 224.43,67.58 			"/>
			<g>
				<path class="st1" d="M130.16,22.57h-9.74v18.55c0,7.36,0.09,13.29,0.09,17.04l-12.22-35.59h-4.01v-0.02h-9.74v18.55
					c0,7.36,0.09,13.29,0.09,17.04L82.41,22.56H68.9v45.92h9.67l0.01-26.7l9.37,26.77l10.06-0.05l0-0.01h6.44l0.01-26.7l9.37,26.77
					l10.06-0.05l-0.01-0.03h6.27V22.57z"/>
			</g>
		</g>
	</g>
	<g>
		<path class="st1" d="M76.63,75.46l-0.68,0.76c-0.68-0.55-1.31-0.79-2.06-0.79c-0.91,0-1.63,0.42-1.63,1.29
			c0,0.76,0.36,1.13,1.99,1.63c1.45,0.45,2.68,1.01,2.68,2.75c0,1.58-1.2,2.68-3.23,2.68c-1.3,0-2.33-0.43-3.08-1.17l0.68-0.76
			c0.68,0.55,1.39,0.91,2.38,0.91c1.07,0,1.95-0.53,1.95-1.62c0-0.88-0.42-1.28-1.96-1.75c-1.76-0.54-2.68-1.21-2.68-2.62
			c0-1.39,1.18-2.37,2.85-2.37C75.08,74.41,75.87,74.77,76.63,75.46z"/>
		<path class="st1" d="M97.13,75.63h-2.51v7.99h-1.25v-7.99h-2.58v-1.07h6.47L97.13,75.63z"/>
		<path class="st1" d="M118.07,80.72c0,1.8-1.14,3.06-3.18,3.06c-2.06,0-3.16-1.26-3.16-3.06v-6.15h1.25v6.06
			c0,1.41,0.62,2.1,1.91,2.1c1.3,0,1.92-0.7,1.92-2.1v-6.06h1.26V80.72z"/>
		<path class="st1" d="M140.14,79.05c0,3.69-2.3,4.58-4.26,4.58h-2.17v-9.06h1.89C137.92,74.56,140.14,75.29,140.14,79.05z
			 M134.96,75.56v7.07h1.01c1.42,0,2.84-0.6,2.84-3.59c0-3.06-1.49-3.48-2.93-3.48H134.96z"/>
		<path class="st1" d="M156.58,83.62h-1.25v-9.06h1.25V83.62z"/>
		<path class="st1" d="M179.42,79.1c0,3-1.55,4.68-3.83,4.68c-2.26,0-3.83-1.63-3.83-4.67c0-2.98,1.56-4.71,3.83-4.71
			C177.87,74.41,179.42,76.05,179.42,79.1z M173.1,79.11c0,2.62,1.03,3.64,2.5,3.64c1.53,0,2.5-1.03,2.5-3.66
			c0-2.6-0.95-3.67-2.5-3.67C174.08,75.43,173.1,76.5,173.1,79.11z"/>
	</g>
</g>
</svg>
