<?xml version="1.0" encoding="utf-8"?>
<!-- Generator: Adobe Illustrator 27.9.0, SVG Export Plug-In . SVG Version: 6.00 Build 0)  -->
<svg version="1.1" id="Camada_1" xmlns="http://www.w3.org/2000/svg" xmlns:xlink="http://www.w3.org/1999/xlink" x="0px" y="0px"
	 viewBox="0 0 1222 558" style="enable-background:new 0 0 1222 558;" xml:space="preserve">
<style type="text/css">
	.st0{fill:#FFFFFF;}
</style>
<path class="st0" d="M542.6,19.6c18.6,0,36.7,0,54.8,0.1c1,0,2.4,1.4,3,2.5c2.2,4.5,4.2,9.1,6.4,14c11.8-10.1,26.1-13.4,40.5-15.3
	c20.1-2.6,40.2-2.4,58.2,9.1c3.6,2.3,6.7,5.5,10.3,8.6c8.9-7.8,19.4-13.4,31.2-16c25.8-5.9,50.4-4,71.5,13.9
	c14.1,12,20,28.1,21.5,46.1c0.7,8.6,0.8,17.3,0.8,25.9c0,93.9,0,187.8,0,281.6c0,1.7,0,3.4,0,5.5c-23.9,0-47.5,0-71.8,0
	c0-1.8,0-3.6,0-5.4c0-101.3,0-202.7-0.1-304c0-4.6-1-9.6-2.7-13.8c-2.4-5.9-7.4-9.5-13.9-9.8c-8.2-0.4-16.5-0.1-25.3-0.1
	c0,111.1,0,222,0,333.2c-23.8,0-47.1,0-70.8,0c0-1.9,0-3.6,0-5.2c0-101.1,0-202.1,0-303.2c0-3.6-0.1-7.3-1.1-10.6
	c-2.3-7.8-7.3-13.5-15.9-14c-8.2-0.5-16.5-0.1-25-0.1c0,111.1,0,221.9,0,333.1c-24,0-47.6,0-71.4,0
	C542.6,270.2,542.6,145.1,542.6,19.6z"/>
<path class="st0" d="M0.9,325c0-1.8,0-3.3,0-4.7c0-98.3,0-196.5,0-294.8c0-5.7,0-5.7,5.6-5.7c112.9,0,225.7,0,338.6,0
	c6.2,0,6.2,0,6.2,6.1c0,45.3,0,90.5,0,135.8c0,1.3,0,2.6,0,3.9c-0.3,0.2-0.6,0.3-0.9,0.5c-2.5-3.1-5.1-6.1-7.4-9.3
	c-20-27.8-40-55.6-60.1-83.4c-0.9-1.2-2.3-2-3.4-2.9c-1,1.3-2.7,2.5-3,3.9c-1.6,7.4-2.7,14.8-4.3,22.2c-2.1,9.6-3.8,19.3-6.9,28.5
	c-10.5,31.5-26.2,60.7-43.3,89c-9.3,15.5-19.6,30.3-29.6,45.3c-2.9,4.4-6.7,8.2-10.4,12.7c-4.4-5.3-8.5-10.2-12.5-15
	c-17.6-21-35.2-41.9-52.8-62.9c-2.5-2.9-3.3-2.7-5,0.6c-14.8,28.5-29.6,57.1-44.6,85.5c-5.1,9.6-13.3,16.7-22.5,22
	c-13.2,7.7-26.8,14.5-40.3,21.6C3.2,324.5,2.3,324.6,0.9,325z"/>
<path class="st0" d="M892.2,395.5c0-1.7,0-3.1,0-4.5c0-90.5-0.1-181.1,0.1-271.6c0-20.9,2.9-41.3,13.3-60
	c10.9-19.8,27.5-32.7,49.1-38.6c28-7.6,56.1-7,83.7,1.9c26.9,8.6,41.9,28.2,48.7,54.8c3.4,13.3,4.7,27,4.8,40.7
	c0.1,91.1,0,182.2,0,273.2c0,1.3,0,2.6,0,4.2c-23.8,0-47.3,0-71.2,0c0-66.4,0-132.8,0-199.4c-19.1,0-37.7,0-56.7,0
	c0,66.4,0,132.7,0,199.4C939.9,395.5,916.4,395.5,892.2,395.5z M1020.2,145.8c0.2-0.7,0.4-1.2,0.4-1.7c-0.5-19.5-0.5-39-1.6-58.5
	c-0.8-13.8-8.3-22.5-20.1-24.2c-5.3-0.7-10.9-0.2-16.2,0.6c-7.8,1.2-13.1,6.1-15.3,13.5c-1.8,6.3-3.1,13-3.3,19.5
	c-0.5,15.8-0.3,31.6-0.4,47.5c0,1.1,0.2,2.3,0.3,3.4C983,145.8,1001.5,145.8,1020.2,145.8z"/>
<path class="st0" d="M120,223.8c3.2,5.2,5.6,9.8,8.5,14c6.5,9.2,13.5,18,19.6,27.5c4.6,7.1,8.6,14.7,11.9,22.5
	c7.4,17.7,14.2,35.8,21.3,53.7c0.5,1.3,1.2,2.6,2.2,4.6c1.3-1.6,2.6-2.7,3.4-4.1c17.6-29.1,35.3-58.1,52.6-87.4
	c12-20.3,20.2-42.3,26.8-64.9c5.1-17.3,10.1-34.6,14.9-52c2.3-8.3,4-16.7,6.3-26.1c0.7,1.6,1.1,2.4,1.4,3.3
	c5.8,20.4,13.6,40,24.2,58.4c8.8,15.3,21.5,27.3,35,38.4c2.3,1.9,3.2,3.9,3.2,6.8c-0.1,57.1-0.1,114.2,0,171.4c0,3.9-1,5.4-5.2,5.3
	c-113.5-0.1-227-0.1-340.5,0c-3.6,0-4.8-1-4.7-4.8c0.2-16.2,0.2-32.5,0-48.7c0-3.1,1.2-4.4,3.9-5.5c17.3-7.2,34.4-14.8,51.7-21.9
	c10.9-4.5,18.3-13,25.2-22c12.6-16.4,22.2-34.7,31.3-53.2C115.2,234.4,117.3,229.6,120,223.8z"/>
<path class="st0" d="M482.5,395.6c-23.7,0-47.1,0-70.7,0c0-125.2,0-250.3,0-375.7c23.4,0,46.9,0,70.7,0
	C482.5,144.9,482.5,270.1,482.5,395.6z"/>
<path class="st0" d="M1220.3,395.6c-23.7,0-47.1,0-70.8,0c0-125.3,0-250.3,0-375.7c23.5,0,47,0,70.8,0
	C1220.3,144.9,1220.3,270.1,1220.3,395.6z"/>
<path class="st0" d="M657.8,504.1c-1.9,1.4-3,2-3.8,2.8c-14.6,14.2-40.6,8.4-47-14.4c-3.6-12.9-1.5-25,8-35.1
	c10.5-11.1,27.8-11.6,39-1c0.9,0.9,1.9,1.6,3.5,3c0.2-1.9,0.6-3.2,0.5-4.4c-0.4-3.5,1-4.5,4.5-4.6c3.8,0,5.1,1.1,5,5
	c-0.3,21.8-0.2,43.6-0.5,65.5c-0.2,14.9-12.9,27-27.8,27.3c-12.2,0.2-22.7-3.3-29-14.5c-1.8-3.1-2.4-6.9-3.3-10.5
	c-0.5-2.1,0.5-2.9,2.8-3.2c4.7-0.7,6.4,1.3,7.5,5.7c1.9,8,7.7,12.4,15.6,13.4c8.5,1.1,16.9,0.1,21.6-8.4
	C658.7,522.7,658.3,513.9,657.8,504.1z M637.4,505.6c4.4,0.4,8.6-1.2,12.3-4c8.9-6.8,11.6-21,6.2-32.3c-6.5-13.8-26.4-16.1-35.5-3.9
	c-5.9,8-6.7,17-3.1,26.4C620.9,500.9,627.5,505.6,637.4,505.6z"/>
<path class="st0" d="M404.8,456.9c5-4.8,9.9-8.6,17-8c6.9,0.6,11.7,4.5,15.9,10.1c1-1.1,1.8-1.9,2.5-2.8c6.8-7.6,18.3-9.7,26.5-5
	c4.9,2.9,7.8,7.4,8.5,12.8c0.9,7.2,1.3,14.5,1.6,21.8c0.3,7.7-0.1,15.4,0.1,23.2c0.1,3.8-1.9,4.1-4.8,3.9c-2.7-0.1-5.3,0.5-5.2-3.9
	c0.3-10.9,0.1-21.8,0-32.8c0-2.6-0.3-5.3-0.7-7.9c-1.1-7.1-4.6-10.5-10.6-10.8c-7.1-0.3-12.4,3.2-13.9,9.9
	c-0.9,4.1-1.5,8.4-1.6,12.6c-0.2,9.7-0.2,19.4,0,29.2c0.1,3.2-1.4,3.9-4.1,3.7c-2.5-0.2-5.4,0.8-5.4-3.7c0.1-13,0.1-26.1-0.5-39.1
	c-0.5-11-9.9-16-19.1-10.2c-2.4,1.5-4.4,4.7-5.2,7.6c-1.2,4.3-1.6,8.9-1.7,13.3c-0.2,9.2-0.3,18.4,0,27.6c0.2,4.4-1.9,4.5-5.3,4.6
	c-3.9,0.2-4.7-1.3-4.7-4.8c0.2-17.7,0.1-35.4,0-53.1c0-2.6-0.1-5,3.6-4.6c2.7,0.3,6.7-1.6,6.3,3.9C404,455,404.4,455.6,404.8,456.9z
	"/>
<path class="st0" d="M1182.9,458.9c3-2.6,5.2-5.1,8-6.8c9.4-6,26.3-4.8,29.7,11.6c0.7,3.2,1.2,6.5,1.3,9.8
	c0.2,11.8-0.1,23.7,0.2,35.5c0.1,4.7-2.7,3.8-5.4,4c-2.8,0.1-4.3-0.3-4.2-3.9c0.2-12.9,0-25.8-0.3-38.7c-0.1-4.9-1.3-9.6-6.6-11.7
	c-5.6-2.3-11.4-1.6-14.9,3.1c-2.7,3.6-4.2,8.7-4.4,13.2c-0.6,11.1-0.4,22.3-0.2,33.5c0.1,4.1-1.8,4.5-5,4.6c-3.4,0.1-5-0.6-4.9-4.6
	c0.3-11.6,0.3-23.2,0-34.7c-0.1-3.4-0.9-6.9-2.1-10c-1.9-4.8-6.1-6.4-11-6c-5.6,0.4-9.8,3.4-11.2,8.7c-1.4,5.3-1.9,11-2,16.5
	c-0.3,8.5,0,17,0.1,25.5c0,2.5,0.1,4.9-3.7,4.6c-2.9-0.3-6.1,1-6-4.3c0.3-18.1,0.1-36.2,0.1-54.3c0-2.5,0.3-4.4,3.4-3.9
	c2.5,0.4,6.8-2,6.3,3.7c-0.1,0.7,0.3,1.5,0.6,3c4.7-5.4,9.8-9,17-8.4C1174.3,449.5,1179.1,453.2,1182.9,458.9z"/>
<path class="st0" d="M889.3,505.1c0,2.1,0,4.2,0,6.3c0,11.2-0.1,22.4,0,33.5c0,4.3-2.9,3.2-5.3,3.3c-2.3,0.1-4.5,0.5-4.5-3.2
	c0.1-30.3,0.1-60.7-0.1-91c0-4.2,2.7-3.4,5.1-3.5c2.5-0.1,5-0.3,4.6,3.5c-0.2,1.5,0,3.1,0,5.5c1.6-1.1,2.5-1.6,3.2-2.3
	c12.7-13.5,35.5-10.5,45,7.2c7.6,14.2,5.1,31.7-6.3,42.9c-9.2,9-25.9,9.7-35.9,1.5c-1.7-1.4-3.3-2.8-5-4.3
	C890,504.7,889.7,504.9,889.3,505.1z M931.5,481.9c0-1.5,0-2.6,0-3.6c-0.4-8-3.7-14.4-11-18.1c-7.4-3.8-14.8-3.8-21.9,0.9
	c-9.9,6.7-12.9,21.6-6.7,33.3c5.9,11.2,18.9,15,29.6,8.2C929.1,497.8,932.1,490.4,931.5,481.9z"/>
<path class="st0" d="M152.4,446.9c6.7,16,12.9,31,19.2,45.9c0.4,0,0.9,0,1.3,0c2.4-5.4,4.9-10.7,7.2-16.1c3.4-7.6,6.8-15.3,10-23
	c1-2.4,2.5-3.5,5.2-3.2c2.1,0.2,4.2,0,7.1,0c-10.2,21.9-20,43.2-30.4,65.6c-6.6-15.8-12.7-30.5-18.9-45.2c-0.5,0-1,0-1.5,0.1
	c-6.2,14.8-12.4,29.6-18.9,45.1c-10.1-22-19.9-43.2-29.7-64.5c6.2-2.7,10.2-1.3,12.5,4.1c5,11.4,10.1,22.8,15.1,34.2
	c0.4,0.9,1,1.7,2.2,3.8C139.6,477.8,145.8,462.9,152.4,446.9z"/>
<path class="st0" d="M235.6,493.7c6.6-15.9,12.9-30.9,19.5-46.8c6.6,15.8,12.9,30.7,19.1,45.7c0.4,0,0.8,0,1.1,0
	c1.1-2.1,2.4-4.2,3.4-6.5c4.6-10.4,9.3-20.9,13.6-31.4c1.4-3.4,3.3-4.8,6.9-4.3c1.7,0.2,3.4,0,6,0c-10.2,22-20.1,43.2-30.4,65.6
	c-6.6-15.8-12.8-30.6-19-45.3c-0.4,0-0.8-0.1-1.3-0.1c-6.2,14.7-12.3,29.5-19,45.5c-10.2-22.1-19.9-43.3-29.7-64.5
	c5.8-2.8,10.3-1.3,12.6,4.1c5.1,11.7,10.2,23.3,15.3,35C234,491.4,234.5,492,235.6,493.7z"/>
<path class="st0" d="M0.1,450.8c1.9-0.1,2.9-0.1,4-0.2c4.9-0.6,7.7,1.3,9.6,6.1c4.3,10.9,9.2,21.4,13.9,32.1c0.6,1.3,1.4,2.5,2.8,5
	c6.6-16,12.8-30.9,19.4-46.8c6.6,15.7,12.9,30.7,19.2,45.7c0.4,0,0.9,0,1.3-0.1c1.2-2.4,2.5-4.8,3.6-7.3c4.4-9.9,8.9-19.8,12.9-29.9
	c1.6-3.9,3.7-5.5,7.7-4.9c1.4,0.2,2.9,0,5.3,0c-10.1,21.9-20,43.2-30.3,65.6c-3.6-8.6-6.7-15.9-9.8-23.3c-3-7.3-6.1-14.6-9.1-21.9
	c-0.5,0-0.9-0.1-1.4-0.1c-6.2,14.8-12.4,29.5-19,45.3C19.9,493.9,10.1,472.6,0.1,450.8z"/>
<path class="st0" d="M544.8,459.5c0.3-1.8,0.5-2.6,0.5-3.3c0.2-5.5,2.5-7.2,7.9-5.4c0.9,0.3,1.8,2.4,1.8,3.7
	c0.1,16.1,0.1,32.2,0.1,48.3c0,1.6,0,3.2,0,4.8c0,5.4,0,5.2-5.2,5.4c-3.4,0.2-5.1-0.7-4.6-4.4c0.1-1.1-0.1-2.3-0.3-4.1
	c-1.4,0.9-2.3,1.3-3,1.9c-8.5,8.3-18.5,10.3-29.4,6.3c-11.2-4.1-17.1-13.1-19.2-24.5c-2.1-11.8,0.6-22.4,9-31.2
	c10.3-10.8,28.1-10.9,38.8-0.5C542.1,457.4,543.2,458.1,544.8,459.5z M523.1,505.6c7.6,0.3,13.1-2.2,17.2-7.5
	c6.2-7.9,6.8-16.9,4-26.1c-2.4-7.8-8.1-12.6-16.3-14c-7.2-1.2-13.7,0.4-18.8,6c-6.7,7.4-7.7,15.8-5.4,25.2
	C506.4,499.3,514,505.6,523.1,505.6z"/>
<path class="st0" d="M761.9,448.9c17.9-0.1,33,14.5,33.1,31.9c0.1,19-14.3,33.8-32.9,33.8c-17.7,0-32.8-14.6-32.7-32.4
	C729.5,462.8,744.4,448.9,761.9,448.9z M785.2,481.8c0-14.1-10-24.4-23.5-24.2c-13,0.2-22.7,10.7-22.7,24.7
	c0,13.4,10,23.4,23.4,23.4C775.7,505.6,785.2,495.6,785.2,481.8z"/>
<path class="st0" d="M1123.8,481.3c0.5,17.8-13.8,32.8-31.6,33.3c-17.9,0.5-33.2-13.7-33.7-31.3c-0.6-18,13.4-33.4,30.1-34.5
	C1108,447.6,1124.2,463.7,1123.8,481.3z M1091.3,505.6c13.2,0,22.8-9.8,22.9-23.3c0.1-14-9.6-24.6-22.5-24.8
	c-13-0.1-23.5,10.2-23.7,23.4C1067.8,495.3,1077.5,505.6,1091.3,505.6z"/>
<path class="st0" d="M859,473.7c0,5.6,0.2,11.2,0,16.8c-0.3,9-2.7,17.4-11.7,21.4c-9.7,4.4-19.5,4.1-28.5-2.1
	c-5.2-3.6-7.6-9.5-7.9-15.5c-0.7-13.7-0.7-27.4-0.7-41.1c0-0.9,1.5-2.4,2.5-2.6c6.5-1,7.1-0.4,7.1,6c0,10.1-0.1,20.2,0.1,30.3
	c0.1,3.4,0.3,7,1.4,10.2c2.3,6.9,8.2,9.6,17.3,8.3c6.1-0.9,10.4-5.8,10.6-12.6c0.3-12.4,0.4-24.7,0.6-37.1c0.1-4.8,3.7-7.3,7.9-5.1
	c0.8,0.4,1.3,2.2,1.3,3.3C859,460.6,859,467.2,859,473.7C859,473.7,859,473.7,859,473.7z"/>
<path class="st0" d="M1045.9,466.6c-16.2-11.4-28.7-11.5-37.2-0.9c-8,10-7.1,25.8,2.4,34.5c7.5,7,22.4,9.1,34.8-4
	c0,4,0.2,7.5-0.1,11c-0.1,0.9-1.3,1.9-2.2,2.5c-19.3,11.7-44.8,1.3-49.4-20.7c-2.7-12.9,0.7-24.6,11.7-33c11.6-8.8,24.2-9.5,37-2.8
	c1.2,0.6,1.9,2.4,2.5,3.7c0.4,0.8,0.4,1.8,0.4,2.7C1045.9,461.8,1045.9,463.9,1045.9,466.6z"/>
<path class="st0" d="M699.8,457.5c1.6-1.7,2.8-2.9,3.9-4.1c4.5-4.7,10.4-5.8,16.4-3.2c1.9,0.8,2.6,1.7,1.4,3.6
	c-1.1,1.8-2,3.7-3.2,5.7c-1.9-0.6-3.6-1.4-5.3-1.6c-6.5-0.9-12.5,4.2-13.1,12.1c-0.7,9.5-0.7,19.1-0.9,28.7c-0.1,3.7-0.1,7.5,0,11.2
	c0.1,2.4-0.8,3.3-3.3,3.3c-6.5,0.1-6.5,0.2-6.5-6.5c0-16.9,0-33.8,0-50.7c0-2.3-1-5.3,3.3-5.3c5.9-0.1,6-0.2,6.5,5
	C699.1,455.8,699.3,456.2,699.8,457.5z"/>
<path class="st0" d="M578.1,481.8c0-9.2,0.2-18.4-0.1-27.5c-0.1-4.1,2.3-3.7,4.9-3.7c2.6,0,5-0.4,5,3.7c-0.2,18.4-0.2,36.7,0,55.1
	c0,5.3-3.7,3.2-6.1,3.6c-2.8,0.5-3.7-0.9-3.7-3.6C578.2,500.1,578.1,490.9,578.1,481.8z"/>
<path class="st0" d="M370.5,481.3c0,9.2-0.2,18.4,0.1,27.5c0.1,4-1.9,4.1-4.9,4.2c-3.2,0.1-4.6-0.8-4.5-4.2
	c0.1-18.2,0.2-36.4,0-54.7c0-4.1,2.4-3.6,4.9-3.7c2.6-0.1,4.6,0,4.5,3.7C370.3,463.2,370.5,472.3,370.5,481.3z"/>
<path class="st0" d="M359,426.1c0-4.2,2.6-6.9,6.9-7c3.8,0,6.9,3.2,6.9,7.1c0,3.6-3.2,6.8-6.8,6.8
	C362.2,433.2,359.1,430.1,359,426.1z"/>
<path class="st0" d="M582.8,433.1c-3.8-0.1-7-3.5-6.8-7.3c0.2-3.7,3.4-6.7,7.1-6.7c3.6,0,7.3,3.6,7.2,7.1
	C590.2,429.6,586.3,433.2,582.8,433.1z"/>
<path class="st0" d="M974.9,507.5c-0.1,3.8-3.2,7.1-6.6,7.1c-3.9,0-7.2-3.6-7.1-7.5c0.1-3.5,3.5-6.4,7.3-6.2
	C972.1,500.9,975,503.9,974.9,507.5z"/>
<path class="st0" d="M327.5,500.8c3.8,0.1,7.2,3.5,7,7.1c-0.2,3.3-3.9,6.6-7.3,6.6c-3.5,0-6.5-3.4-6.5-7.1
	C320.7,503.6,323.6,500.8,327.5,500.8z"/>
</svg>
