<?xml version="1.0" encoding="utf-8"?>
<!-- Generator: Adobe Illustrator 27.9.0, SVG Export Plug-In . SVG Version: 6.00 Build 0)  -->
<svg version="1.1" id="Camada_1" xmlns="http://www.w3.org/2000/svg" xmlns:xlink="http://www.w3.org/1999/xlink" x="0px" y="0px"
	 viewBox="0 0 250 100" style="enable-background:new 0 0 250 100;" xml:space="preserve">
<style type="text/css">
	.st0{fill:#FFFFFF;}
</style>
<g>
	<g>
		<g>
			<g>
				<g>
					<path class="st0" d="M53.6,46.5c0,7.3-4.7,12.8-14.1,12.8s-14-5.2-14-12.8v-24h8.5v23.7c0,4.6,1.7,6.8,5.5,6.8
						c3.9,0,5.5-2.2,5.5-6.8V22.5h8.5L53.6,46.5L53.6,46.5z"/>
				</g>
				<g>
					<path class="st0" d="M25.6,62.4h27.9v6H25.6V62.4z"/>
				</g>
			</g>
			<g>
				<g>
					<path class="st0" d="M65.8,68.6h-9.1V31.6h9.1V68.6z"/>
				</g>
				<g>
					<path class="st0" d="M56.7,22.6h9.1v6h-9.1C56.7,28.7,56.7,22.6,56.7,22.6z"/>
				</g>
			</g>
		</g>
		<path class="st0" d="M182,70.9"/>
		<path class="st0" d="M172.6,70.9"/>
		<g>
			<g>
				<path class="st0" d="M174.5,45.6c0,14.3-7.8,23-20.7,23c-12.9,0-20.7-8.4-20.7-23c0-14.3,7.8-23,20.7-23
					C166.8,22.6,174.5,31,174.5,45.6z M144.5,45.6c0,11.1,3.3,15.4,9.3,15.4c6.2,0,9.3-4.3,9.3-15.4c0-11.1-3.2-15.4-9.3-15.4
					C147.7,30.2,144.5,34.5,144.5,45.6z"/>
			</g>
			<polygon class="st0" points="213,22.8 213,22.6 209.4,22.6 209.4,22.6 199.4,22.6 199.4,22.7 199.4,22.7 191.2,55.2 183,22.6 
				173.2,22.7 184.3,67.5 193.5,67.5 198,67.6 198,67.5 198,67.5 206.3,35 214.4,67.6 224.4,67.6 			"/>
			<g>
				<path class="st0" d="M130.2,22.6h-9.7v18.5c0,7.4,0.1,13.3,0.1,17l-12.2-35.6h-4v0h-9.7v18.5c0,7.4,0.1,13.3,0.1,17L82.4,22.6
					H68.9v45.9h9.7l0-26.7L88,68.5L98,68.5v0h6.4l0-26.7l9.4,26.8l10.1-0.1l0,0h6.3L130.2,22.6L130.2,22.6z"/>
			</g>
		</g>
	</g>
	<g>
		<path class="st0" d="M76.6,75.5l-0.7,0.8c-0.7-0.6-1.3-0.8-2.1-0.8c-0.9,0-1.6,0.4-1.6,1.3c0,0.8,0.4,1.1,2,1.6
			c1.4,0.4,2.7,1,2.7,2.8c0,1.6-1.2,2.7-3.2,2.7c-1.3,0-2.3-0.4-3.1-1.2l0.7-0.8c0.7,0.6,1.4,0.9,2.4,0.9c1.1,0,1.9-0.5,1.9-1.6
			c0-0.9-0.4-1.3-2-1.8c-1.8-0.5-2.7-1.2-2.7-2.6c0-1.4,1.2-2.4,2.8-2.4C75.1,74.4,75.9,74.8,76.6,75.5z"/>
		<path class="st0" d="M97.1,75.6h-2.5v8h-1.2v-8h-2.6v-1.1h6.5L97.1,75.6z"/>
		<path class="st0" d="M118.1,80.7c0,1.8-1.1,3.1-3.2,3.1c-2.1,0-3.2-1.3-3.2-3.1v-6.2h1.2v6.1c0,1.4,0.6,2.1,1.9,2.1
			c1.3,0,1.9-0.7,1.9-2.1v-6.1h1.3V80.7z"/>
		<path class="st0" d="M140.1,79.1c0,3.7-2.3,4.6-4.3,4.6h-2.2v-9.1h1.9C137.9,74.6,140.1,75.3,140.1,79.1z M135,75.6v7.1h1
			c1.4,0,2.8-0.6,2.8-3.6c0-3.1-1.5-3.5-2.9-3.5H135z"/>
		<path class="st0" d="M156.6,83.6h-1.2v-9.1h1.2V83.6z"/>
		<path class="st0" d="M179.4,79.1c0,3-1.6,4.7-3.8,4.7c-2.3,0-3.8-1.6-3.8-4.7c0-3,1.6-4.7,3.8-4.7
			C177.9,74.4,179.4,76.1,179.4,79.1z M173.1,79.1c0,2.6,1,3.6,2.5,3.6c1.5,0,2.5-1,2.5-3.7c0-2.6-0.9-3.7-2.5-3.7
			C174.1,75.4,173.1,76.5,173.1,79.1z"/>
	</g>
</g>
</svg>
