<?xml version="1.0" encoding="utf-8"?>
<!-- Generator: Adobe Illustrator 27.9.0, SVG Export Plug-In . SVG Version: 6.00 Build 0)  -->
<svg version="1.1" id="Camada_1" xmlns="http://www.w3.org/2000/svg" xmlns:xlink="http://www.w3.org/1999/xlink" x="0px" y="0px"
	 viewBox="0 0 206 84.9" style="enable-background:new 0 0 206 84.9;" xml:space="preserve">
<style type="text/css">
	.st0{fill-rule:evenodd;clip-rule:evenodd;fill:#FFFFFF;}
</style>
<g>
	<g>
		<path class="st0" d="M40.4,2c2.1,0,3.7,0.8,4.7,2.5l20.8,33.2L86.8,4.4h0c1-1.6,2.6-2.5,4.6-2.5l36.9,0c6.3-0.3,9,2.3,9.2,7.1
			c0,0.1,0,0.1,0,0.2l0,3h-16.9v33.8c0,1.4-0.5,2.5-1.6,3.5c-1.1,0.9-2.3,1.4-3.8,1.4c-1.5,0-2.8-0.5-3.8-1.4
			c-1.1-0.9-1.6-2.1-1.6-3.5V12.3H94.2L72.8,46.6c-3.9,6.2-10,5.9-13.8-0.2l-11.2-18l-12-19.2C35.3,8.6,35,7.8,35,6.9
			c0-1.4,0.5-2.5,1.6-3.5S38.9,2,40.4,2L40.4,2z M141.4,1.9c15.3,0,30.4,0.1,45.7,0.1c4.4,0,8.2,1.4,11.3,4.3
			c3.2,2.9,4.7,6.3,4.7,10.3c0,3.8-1.4,7-4.1,9.8c10,10.4-0.2,24.6-11.9,24.6h-34.9c-3,0-5.6-1-7.7-2.9c-2.1-1.9-3.2-4.2-3.2-6.9
			C141.3,28.1,141.4,15,141.4,1.9L141.4,1.9z M152.2,11.9L152.2,11.9c0,9.7,0,19.5,0,29.2l34.8,0.1c1.4,0,2.7-0.5,3.7-1.5
			c1-1,1.6-2.2,1.6-3.5c0-1.3-0.5-2.5-1.6-3.5c-1-1-2.3-1.5-3.7-1.5H166c-2.9,0-5.4-0.9-7.5-2.8c-2.1-1.9-3.1-4.1-3.2-6.8h31.8
			c1.4,0,2.7-0.5,3.7-1.5c1-1,1.6-2.2,1.6-3.5c0-1.3-0.5-2.4-1.6-3.4c-1-0.9-2.3-1.4-3.7-1.4C175.3,11.8,163.9,11.9,152.2,11.9
			L152.2,11.9z M6.7,2C5.2,2,3.9,2.5,2.8,3.4c-1.1,1-1.6,2.1-1.6,3.5c0,0.9,0.3,1.7,0.8,2.5l22.7,36.3c4.1,6.6,10,7.9,14.5,0.7
			l2.1-3.4c4.1-6.5,4.1-13,0-19.6l-0.1-0.1l-9,14.5L11.4,4.5C10.3,2.8,8.8,2,6.7,2z"/>
		<path class="st0" d="M33.1,65.9h-6.3v-3.5h17.1v3.5h-6.6v16.4h-4.2V65.9L33.1,65.9z M62.9,74.7v7.6h-4.2V62.4h9.7
			c2.8,0,4.7,0.4,5.8,1.1c0.8,0.5,1.4,1.2,1.8,2c0.4,0.8,0.6,1.6,0.6,2.4c0,3-1.3,4.9-3.8,5.8c0.9,0.3,1.5,0.6,1.9,1
			c1,1,1.6,2.5,1.7,4.6c0.1,1.4,0.3,2.4,0.5,3h-4.8c-0.1-0.5-0.3-1.4-0.4-2.8c-0.1-0.8-0.2-1.4-0.3-1.8c-0.1-0.4-0.3-0.8-0.5-1.2
			c-0.5-0.8-1.4-1.4-2.5-1.6c-0.6-0.1-1.2-0.2-2.1-0.2H62.9L62.9,74.7z M62.9,71.2h5.9c1,0,1.7-0.1,2.1-0.4c0.6-0.4,0.9-1.2,0.9-2.3
			c0-1.2-0.5-2-1.4-2.3c-0.3-0.1-0.9-0.2-1.6-0.2h-5.9V71.2L62.9,71.2z M90.7,82.3l8.2-19.9h4.9l8.2,19.9h-5l-1.9-4.6h-7.6l-1.9,4.6
			H90.7L90.7,82.3z M101.3,67.1l-2.8,7h5.7L101.3,67.1L101.3,67.1z M143.8,62.4l-8.7,19.9h-4.2l-8.4-19.9h4.8l5.8,15l5.9-15H143.8
			L143.8,62.4z M173.4,62.4v3.5h-5.5c-1.6,0-2.7,0.1-3.3,0.4c-0.7,0.2-1.3,0.8-1.8,1.6c-0.3,0.5-0.4,1.4-0.5,2.7h11.2v3.5h-11.2
			c0.1,1.4,0.5,2.5,1.1,3.2c0.3,0.4,0.7,0.7,1.1,0.8c0.4,0.2,1,0.3,1.8,0.4c0.5,0.1,1.1,0.1,1.8,0.1h5.3v3.5h-5.5
			c-1.5,0-2.8-0.1-3.9-0.3c-1.3-0.2-2.4-0.7-3.3-1.4c-0.9-0.7-1.6-1.7-2.2-3c-0.7-1.5-1-3.4-1-5.5c0-3.4,1.1-6.1,3.2-8
			c0.8-0.8,1.7-1.2,2.7-1.5c0.7-0.2,1.7-0.3,2.9-0.3H173.4L173.4,62.4z M189.1,62.4h4.2v11.2c0.1,1.4,0.1,2.4,0.2,2.8
			c0.2,1.2,1,2,2.4,2.2c0.6,0.1,1.6,0.2,2.8,0.2h4.1v3.5h-4.5c-2.1,0-3.7-0.1-4.6-0.4c-2.2-0.6-3.6-2-4.2-4.2
			c-0.2-0.8-0.3-2.2-0.4-4.2V62.4z"/>
	</g>
</g>
</svg>
